<?xml version="1.0" standalone="no"?>
<!DOCTYPE svg PUBLIC "-//W3C//DTD SVG 1.1//EN" "http://www.w3.org/Graphics/SVG/1.1/DTD/svg11.dtd" >
<svg xmlns="http://www.w3.org/2000/svg">
<metadata></metadata>
<defs>
<font id="frucade_mediumregular" horiz-adv-x="1536" >
<font-face units-per-em="2048" ascent="1792" descent="-256" />
<missing-glyph horiz-adv-x="512" />
<glyph horiz-adv-x="2048" />
<glyph horiz-adv-x="2048" />
<glyph unicode="&#xd;" horiz-adv-x="512" />
<glyph unicode=" "  horiz-adv-x="512" />
<glyph unicode="&#x09;" horiz-adv-x="512" />
<glyph unicode="&#xa0;" horiz-adv-x="512" />
<glyph unicode="!" horiz-adv-x="512" d="M0 0v264h256v-264h-256zM0 508v772h256v-772h-256z" />
<glyph unicode="&#x22;" horiz-adv-x="1024" d="M0 768v512h262v-512h-262zM506 768v512h262v-512h-262z" />
<glyph unicode="#" d="M0 254v264h254v244h-254v264h254v254h264v-254h244v254h264v-254h254v-264h-254v-244h254v-264h-254v-254h-264v254h-244v-254h-264v254h-254zM518 518h244v244h-244v-244z" />
<glyph unicode="$" d="M0 -2v266h508v244h-254v254h-254v264h254v256h254v254h264v-254h508v-266h-508v-244h254v-254h254v-264h-254v-256h-254v-254h-264v254h-508zM264 772h244v244h-244v-244zM772 264h244v244h-244v-244z" />
<glyph unicode="%" d="M0 0v264h254v254h254v254h254v254h254v254h264v-264h-254v-254h-254v-254h-254v-254h-254v-254h-264zM0 1016v264h264v-264h-264zM1016 0v264h264v-264h-264z" />
<glyph unicode="&#x26;" horiz-adv-x="1280" d="M0 254v264h254v244h-254v264h254v254h262v-254h254v-264h-254v-244h254v-254h254v-264h-264v254h-244v-254h-262v254h-254zM264 264h244v244h-244v-244zM264 772h244v244h-244v-244z" />
<glyph unicode="'" horiz-adv-x="512" d="M0 768v512h256v-512h-256z" />
<glyph unicode="(" horiz-adv-x="768" d="M0 254v772h252v254h260v-264h-252v-752h252v-264h-260v254h-252z" />
<glyph unicode=")" horiz-adv-x="768" d="M0 0v264h252v752h-252v264h260v-254h252v-772h-252v-254h-260z" />
<glyph unicode="*" d="M0 0v264h254v496h-254v264h264v-254h244v254h264v-254h244v254h264v-264h-254v-496h254v-264h-264v254h-244v-254h-264v254h-244v-254h-264z" />
<glyph unicode="+" horiz-adv-x="1024" d="M0 508v264h252v252h264v-252h252v-264h-252v-252h-264v252h-252z" />
<glyph unicode="," horiz-adv-x="768" d="M0 6h252v506h260v-516h-252v-252h-260v262z" />
<glyph unicode="-" horiz-adv-x="1024" d="M0 512v256h768v-256h-768z" />
<glyph unicode="." horiz-adv-x="512" d="M0 0v256h256v-256h-256z" />
<glyph unicode="/" d="M0 0v264h254v254h254v254h254v254h254v254h264v-264h-254v-254h-254v-254h-254v-254h-254v-254h-264z" />
<glyph unicode="0" d="M0 254v772h254v254h772v-254h254v-772h-254v-254h-772v254h-254zM264 264h752v752h-752v-752z" />
<glyph unicode="1" horiz-adv-x="1024" d="M0 508v264h252v254h254v254h262v-1280h-262v762h-244v-254h-262z" />
<glyph unicode="2" horiz-adv-x="1280" d="M0 0v264h254v254h254v254h252v244h-496v-254h-264v264h254v254h516v-254h254v-264h-254v-254h-254v-244h508v-264h-1024z" />
<glyph unicode="3" horiz-adv-x="1024" d="M0 0v264h2v6h6v-6h498v244h-254v264h254v244h-498v-6h-6v6h-2v264h516v-254h252v-264h-252v-244h252v-264h-252v-254h-516z" />
<glyph unicode="4" d="M0 254v264h254v254h254v254h254v254h264v-264h-254v-244h254v-254h254v-264h-254v-254h-264v254h-762zM518 518h244v244h-244v-244z" />
<glyph unicode="5" horiz-adv-x="1024" d="M0 0v264h506v244h-506v772h768v-264h-506v-244h254v-254h252v-264h-252v-254h-516z" />
<glyph unicode="6" horiz-adv-x="1280" d="M0 254v772h254v254h516v-264h-506v-244h506v-254h254v-264h-254v-254h-516v254h-254zM264 264h496v244h-496v-244z" />
<glyph unicode="7" horiz-adv-x="1024" d="M0 0v518h252v254h254v244h-506v264h768v-518h-252v-254h-254v-508h-262z" />
<glyph unicode="8" horiz-adv-x="1024" d="M0 254v264h252v244h-252v264h252v254h264v-254h252v-264h-252v-244h252v-264h-252v-254h-264v254h-252zM262 264h244v244h-244v-244zM262 772h244v244h-244v-244z" />
<glyph unicode="9" horiz-adv-x="1280" d="M0 762v264h254v254h516v-254h254v-772h-254v-254h-516v264h506v244h-506v254h-254zM264 772h496v244h-496v-244z" />
<glyph unicode=":" horiz-adv-x="512" d="M0 256v262h256v-262h-256zM0 762v262h256v-262h-256z" />
<glyph unicode=";" horiz-adv-x="768" d="M0 8h252v508h260v-518h-252v-254h-260v264zM252 760v264h260v-264h-260z" />
<glyph unicode="&#x3c;" horiz-adv-x="1024" d="M0 508v264h252v254h254v254h262v-264h-252v-254h-254v-244h254v-254h252v-264h-262v254h-254v254h-252z" />
<glyph unicode="=" horiz-adv-x="1024" d="M0 256v262h768v-262h-768zM0 762v262h768v-262h-768z" />
<glyph unicode="&#x3e;" horiz-adv-x="1024" d="M0 0v264h252v254h254v244h-254v254h-252v264h262v-254h254v-254h252v-264h-252v-254h-254v-254h-262z" />
<glyph unicode="?" horiz-adv-x="1280" d="M0 762v264h254v254h516v-254h254v-264h-254v-254h-254v-256h-262v264h254v256h252v244h-496v-254h-264zM254 8h262v-264h-262v264z" />
<glyph unicode="A" d="M0 0v1026h254v254h772v-254h254v-1026h-264v508h-752v-508h-264zM264 772h752v244h-752v-244z" />
<glyph unicode="B" horiz-adv-x="1280" d="M0 0v1280h770v-254h254v-264h-254v-244h254v-264h-254v-254h-770zM264 264h496v244h-496v-244zM264 772h496v244h-496v-244z" />
<glyph unicode="C" horiz-adv-x="1280" d="M0 254v772h254v254h770v-264h-760v-752h760v-264h-770v254h-254z" />
<glyph unicode="D" horiz-adv-x="1280" d="M0 0v1280h770v-254h254v-772h-254v-254h-770zM264 264h496v752h-496v-752z" />
<glyph unicode="E" horiz-adv-x="1280" d="M0 0v1280h1024v-264h-760v-244h760v-264h-760v-244h760v-264h-1024z" />
<glyph unicode="F" horiz-adv-x="1280" d="M0 0v1280h1024v-264h-760v-244h760v-264h-760v-508h-264z" />
<glyph unicode="G" d="M0 254v772h254v254h1026v-264h-1016v-752h752v244h-508v264h772v-518h-254v-254h-772v254h-254z" />
<glyph unicode="H" horiz-adv-x="1280" d="M0 0v1280h264v-508h496v508h264v-1280h-264v508h-496v-508h-264z" />
<glyph unicode="I" horiz-adv-x="512" d="M0 0v1280h256v-1280h-256z" />
<glyph unicode="J" horiz-adv-x="1280" d="M0 254v264h264v-254h496v1016h264v-1026h-254v-254h-516v254h-254z" />
<glyph unicode="K" horiz-adv-x="1280" d="M0 0v1280h264v-508h244v254h252v254h264v-264h-254v-254h-254v-244h254v-254h254v-264h-264v254h-252v254h-244v-508h-264z" />
<glyph unicode="L" horiz-adv-x="1280" d="M0 0v1280h264v-1016h760v-264h-1024z" />
<glyph unicode="M" d="M0 0v1280h264v-254h254v-254h244v254h254v254h264v-1280h-264v762h-244v-254h-264v254h-244v-762h-264z" />
<glyph unicode="N" d="M0 0v1280h264v-254h254v-254h254v-254h244v762h264v-1280h-264v254h-254v254h-254v254h-244v-762h-264z" />
<glyph unicode="O" d="M0 254v772h254v254h772v-254h254v-772h-254v-254h-772v254h-254zM264 264h752v752h-752v-752z" />
<glyph unicode="P" horiz-adv-x="1280" d="M0 0v1280h770v-254h254v-264h-254v-254h-506v-508h-264zM264 772h496v244h-496v-244z" />
<glyph unicode="Q" d="M0 252v774h254v254h772v-254h254v-774h-254v-244h254v-264h-264v254h-762v254h-254zM264 262h752v754h-752v-754z" />
<glyph unicode="R" horiz-adv-x="1280" d="M0 0v1280h770v-254h254v-264h-254v-244h254v-518h-264v508h-496v-508h-264zM264 772h496v244h-496v-244z" />
<glyph unicode="S" d="M0 0v264h1016v244h-762v254h-254v264h254v254h1026v-264h-1016v-244h762v-254h254v-264h-254v-254h-1026z" />
<glyph unicode="T" d="M0 1016v264h1280v-264h-508v-1016h-264v1016h-508z" />
<glyph unicode="U" d="M0 254v1026h264v-1016h752v1016h264v-1026h-254v-254h-772v254h-254z" />
<glyph unicode="V" d="M0 508v772h264v-762h254v-254h244v254h254v762h264v-772h-254v-254h-254v-254h-264v254h-254v254h-254z" />
<glyph unicode="W" horiz-adv-x="2048" d="M0 254v1026h264v-1016h500v762h264v-762h500v1016h264v-1026h-254v-254h-520v254h-244v-254h-520v254h-254z" />
<glyph unicode="X" d="M0 0v264h254v254h254v244h-254v254h-254v264h264v-254h254v-254h244v254h254v254h264v-264h-254v-254h-254v-244h254v-254h254v-264h-264v254h-254v254h-244v-254h-254v-254h-264z" />
<glyph unicode="Y" d="M0 1016v264h264v-254h254v-254h244v254h254v254h264v-264h-254v-254h-254v-762h-264v762h-254v254h-254z" />
<glyph unicode="Z" d="M0 0v264h254v254h254v254h254v244h-762v264h1280v-264h-254v-254h-254v-254h-254v-244h762v-264h-1280z" />
<glyph unicode="[" horiz-adv-x="768" d="M0 0v1280h512v-264h-252v-752h252v-264h-512z" />
<glyph unicode="\" d="M0 1016v264h264v-254h254v-254h254v-254h254v-254h254v-264h-264v254h-254v254h-254v254h-254v254h-254z" />
<glyph unicode="]" horiz-adv-x="768" d="M0 0v264h252v752h-252v264h512v-1280h-512z" />
<glyph unicode="^" horiz-adv-x="1024" d="M0 768v260h252v252h264v-252h252v-260h-262v252h-244v-252h-262z" />
<glyph unicode="_" horiz-adv-x="1024" d="M0 0v256h768v-256h-768z" />
<glyph unicode="`" horiz-adv-x="1280" d="M512 1020v260h260v-252h252v-260h-260v252h-252z" />
<glyph unicode="a" d="M0 0v1026h254v254h772v-254h254v-1026h-264v508h-752v-508h-264zM264 772h752v244h-752v-244z" />
<glyph unicode="b" horiz-adv-x="1280" d="M0 0v1280h770v-254h254v-264h-254v-244h254v-264h-254v-254h-770zM264 264h496v244h-496v-244zM264 772h496v244h-496v-244z" />
<glyph unicode="c" horiz-adv-x="1280" d="M0 254v772h254v254h770v-264h-760v-752h760v-264h-770v254h-254z" />
<glyph unicode="d" horiz-adv-x="1280" d="M0 0v1280h770v-254h254v-772h-254v-254h-770zM264 264h496v752h-496v-752z" />
<glyph unicode="e" horiz-adv-x="1280" d="M0 0v1280h1024v-264h-760v-244h760v-264h-760v-244h760v-264h-1024z" />
<glyph unicode="f" horiz-adv-x="1280" d="M0 0v1280h1024v-264h-760v-244h760v-264h-760v-508h-264z" />
<glyph unicode="g" d="M0 254v772h254v254h1026v-264h-1016v-752h752v244h-508v264h772v-518h-254v-254h-772v254h-254z" />
<glyph unicode="h" horiz-adv-x="1280" d="M0 0v1280h264v-508h496v508h264v-1280h-264v508h-496v-508h-264z" />
<glyph unicode="i" horiz-adv-x="512" d="M0 0v1280h256v-1280h-256z" />
<glyph unicode="j" horiz-adv-x="1280" d="M0 254v264h264v-254h496v1016h264v-1026h-254v-254h-516v254h-254z" />
<glyph unicode="k" horiz-adv-x="1280" d="M0 0v1280h264v-508h244v254h252v254h264v-264h-254v-254h-254v-244h254v-254h254v-264h-264v254h-252v254h-244v-508h-264z" />
<glyph unicode="l" horiz-adv-x="1280" d="M0 0v1280h264v-1016h760v-264h-1024z" />
<glyph unicode="m" d="M0 0v1280h264v-254h254v-254h244v254h254v254h264v-1280h-264v762h-244v-254h-264v254h-244v-762h-264z" />
<glyph unicode="n" d="M0 0v1280h264v-254h254v-254h254v-254h244v762h264v-1280h-264v254h-254v254h-254v254h-244v-762h-264z" />
<glyph unicode="o" d="M0 254v772h254v254h772v-254h254v-772h-254v-254h-772v254h-254zM264 264h752v752h-752v-752z" />
<glyph unicode="p" horiz-adv-x="1280" d="M0 0v1280h770v-254h254v-264h-254v-254h-506v-508h-264zM264 772h496v244h-496v-244z" />
<glyph unicode="q" d="M0 252v774h254v254h772v-254h254v-774h-254v-244h254v-264h-264v254h-762v254h-254zM264 262h752v754h-752v-754z" />
<glyph unicode="r" horiz-adv-x="1280" d="M0 0v1280h770v-254h254v-264h-254v-244h254v-518h-264v508h-496v-508h-264zM264 772h496v244h-496v-244z" />
<glyph unicode="s" d="M0 0v264h1016v244h-762v254h-254v264h254v254h1026v-264h-1016v-244h762v-254h254v-264h-254v-254h-1026z" />
<glyph unicode="t" d="M0 1016v264h1280v-264h-508v-1016h-264v1016h-508z" />
<glyph unicode="u" d="M0 254v1026h264v-1016h752v1016h264v-1026h-254v-254h-772v254h-254z" />
<glyph unicode="v" d="M0 508v772h264v-762h254v-254h244v254h254v762h264v-772h-254v-254h-254v-254h-264v254h-254v254h-254z" />
<glyph unicode="w" horiz-adv-x="2048" d="M0 254v1026h264v-1016h500v762h264v-762h500v1016h264v-1026h-254v-254h-520v254h-244v-254h-520v254h-254z" />
<glyph unicode="x" d="M0 0v264h254v254h254v244h-254v254h-254v264h264v-254h254v-254h244v254h254v254h264v-264h-254v-254h-254v-244h254v-254h254v-264h-264v254h-254v254h-244v-254h-254v-254h-264z" />
<glyph unicode="y" d="M0 1016v264h264v-254h254v-254h244v254h254v254h264v-264h-254v-254h-254v-762h-264v762h-254v254h-254z" />
<glyph unicode="z" d="M0 0v264h254v254h254v254h254v244h-762v264h1280v-264h-254v-254h-254v-254h-254v-244h762v-264h-1280z" />
<glyph unicode="{" horiz-adv-x="1024" d="M0 508v264h252v254h254v254h262v-264h-252v-752h252v-264h-262v254h-254v254h-252z" />
<glyph unicode="|" horiz-adv-x="512" d="M0 0v1280h256v-1280h-256z" />
<glyph unicode="}" horiz-adv-x="1024" d="M0 0v264h252v752h-252v264h262v-254h254v-254h252v-264h-252v-254h-254v-254h-262z" />
<glyph unicode="~" horiz-adv-x="1280" d="M0 512v256h256v256h256v-256h256v256h256v-256h-256v-256h-256v256h-256v-256h-256z" />
<glyph unicode="&#xad;" horiz-adv-x="1024" d="M0 512v256h768v-256h-768z" />
<glyph unicode="&#xaf;" horiz-adv-x="1024" d="M0 1024v256h768v-256h-768z" />
<glyph unicode="&#xb0;" horiz-adv-x="1024" d="M0 764v264h262v-264h-262zM252 512v262h264v-262h-264zM252 1018v262h264v-262h-264zM506 764v264h262v-264h-262z" />
<glyph unicode="&#xc4;" d="M0 0v1030h252v252h776v-252h252v-1030h-272v506h-736v-506h-272zM0 1528v264h264v-264h-264zM272 778h736v232h-736v-232zM1016 1528v264h264v-264h-264z" />
<glyph unicode="&#xd6;" d="M0 252v778h252v252h776v-252h252v-778h-252v-252h-776v252h-252zM0 1528v264h264v-264h-264zM272 272h736v738h-736v-738zM1016 1528v264h264v-264h-264z" />
<glyph unicode="&#xdc;" d="M0 252v1030h272v-1010h736v1010h272v-1030h-252v-252h-776v252h-252zM0 1528v264h264v-264h-264zM1016 1528v264h264v-264h-264z" />
<glyph unicode="&#xdf;" horiz-adv-x="1280" d="M0 0v1280h768v-256h256v-256h-256v-256h256v-256h-256v-256h-256v256h256v256h-256v256h256v256h-512v-1024h-256z" />
<glyph unicode="&#xe4;" d="M-2 0v1030h252v252h778v-252h252v-1030h-272v506h-738v-506h-272zM-2 1528v264h264v-264h-264zM270 778h738v232h-738v-232zM1016 1528v264h264v-264h-264z" />
<glyph unicode="&#xf6;" d="M0 252v778h252v252h776v-252h252v-778h-252v-252h-776v252h-252zM0 1528v264h264v-264h-264zM272 272h736v738h-736v-738zM1016 1528v264h264v-264h-264z" />
<glyph unicode="&#xfc;" d="M0 252v1030h272v-1010h736v1010h272v-1030h-252v-252h-776v252h-252zM0 1528v264h264v-264h-264zM1016 1528v264h264v-264h-264z" />
<glyph unicode="&#x2000;" horiz-adv-x="896" />
<glyph unicode="&#x2001;" horiz-adv-x="1792" />
<glyph unicode="&#x2002;" horiz-adv-x="896" />
<glyph unicode="&#x2003;" horiz-adv-x="1792" />
<glyph unicode="&#x2004;" horiz-adv-x="597" />
<glyph unicode="&#x2005;" horiz-adv-x="448" />
<glyph unicode="&#x2006;" horiz-adv-x="298" />
<glyph unicode="&#x2007;" horiz-adv-x="298" />
<glyph unicode="&#x2008;" horiz-adv-x="224" />
<glyph unicode="&#x2009;" horiz-adv-x="358" />
<glyph unicode="&#x200a;" horiz-adv-x="99" />
<glyph unicode="&#x2010;" horiz-adv-x="1024" d="M0 512v256h768v-256h-768z" />
<glyph unicode="&#x2011;" horiz-adv-x="1024" d="M0 512v256h768v-256h-768z" />
<glyph unicode="&#x2012;" horiz-adv-x="1024" d="M0 512v256h768v-256h-768z" />
<glyph unicode="&#x2013;" horiz-adv-x="1280" d="M0 512v256h1024v-256h-1024z" />
<glyph unicode="&#x2014;" horiz-adv-x="2304" d="M0 512v256h2048v-256h-2048z" />
<glyph unicode="&#x202f;" horiz-adv-x="358" />
<glyph unicode="&#x205f;" horiz-adv-x="448" />
<glyph unicode="&#xe000;" horiz-adv-x="1280" d="M0 0v1280h1280v-1280h-1280z" />
</font>
</defs>
</svg>
